<svg width="67" height="81" viewBox="0 0 67 81" fill="none" xmlns="http://www.w3.org/2000/svg">
<path d="M53.529 67.8181C53.529 66.6236 51.2593 60.5314 58.1877 50.8557C65.116 41.1799 63.9214 37.5963 63.9214 33.8932" stroke="white" stroke-width="5.97269" stroke-linecap="round" stroke-linejoin="round"/>
<path d="M39.1947 42.0161C47.7954 50.1389 53.6486 62.3232 53.6486 69.4905C53.6486 81.0775 42.5394 75.941 28.5633 75.941C14.5872 75.941 3.11963 80.958 3.11963 69.4905C3.11963 62.2038 8.97287 50.1389 17.5735 42.0161" stroke="white" stroke-width="5.97269" stroke-linecap="round" stroke-linejoin="round"/>
<path d="M35.4914 42.4939C45.8839 40.3437 53.529 33.6543 53.529 25.6509C53.529 22.1867 51.1399 17.0502 50.1843 15.139C51.2594 13.1082 51.9761 4.14921 50.3037 3.07412C48.5119 2.11849 40.3891 10.7192 40.3891 10.7192C36.5665 9.04681 33.2218 8.09118 28.3242 8.09118C23.4266 8.09118 18.8874 9.04681 15.0648 10.7192C15.0648 10.7192 8.37542 2.23794 6.58362 3.31303C4.91126 4.26866 5.26962 12.7499 6.22525 15.0195C5.26962 16.9308 3 22.1867 3 25.6509C3 33.6543 10.645 40.3437 21.0375 42.4939" stroke="white" stroke-width="5.97269" stroke-linecap="round" stroke-linejoin="round"/>
</svg>
