<svg width="55" height="55" viewBox="0 0 55 55" fill="none" xmlns="http://www.w3.org/2000/svg">
<path d="M9.45402 4.125C9.45402 5.24219 8.85245 7.30469 7.99308 8.85156C6.10245 12.6328 6.18839 18.0469 8.33683 21.5703C9.96964 24.2344 10.0556 24.9219 9.11027 29.4766C8.42277 32.9141 7.39152 35.0625 5.7587 36.6094C4.46964 37.7266 3.43839 39.5312 3.43839 40.4766C3.43839 41.4219 3.09464 42.9688 2.57902 43.8281C1.46183 45.8906 2.3212 48.125 4.29777 48.125C5.50089 48.125 5.7587 47.4375 5.67277 44.8594C5.58683 42.0234 5.93058 41.5078 8.59464 40.2188C11.5165 38.7578 11.6025 38.7578 12.204 40.4766C13.665 44.2578 16.415 47.2656 18.5634 47.2656C19.6806 47.2656 20.6259 46.8359 20.6259 46.4062C20.6259 45.8906 20.1103 45.5469 19.4228 45.5469C18.7353 45.5469 17.5321 44.6875 16.8446 43.6562C15.5556 41.8516 15.6415 41.5938 18.6493 38.8438C21.3993 36.4375 22.5165 35.9219 26.8134 35.75L31.7978 35.4922V39.875C31.7978 45.8906 32.5712 48.125 34.4618 48.125C36.1806 48.125 36.6962 46.8359 35.3212 46.0625C34.4618 45.4609 35.7509 37.8125 36.8681 36.6953C38.415 35.1484 40.1337 36.8672 42.1103 41.8516C44.5165 47.9531 45.29 48.9844 47.3525 48.9844C49.415 48.9844 49.415 48.5547 47.4384 46.5781C44.7743 43.9141 44.4306 37.7266 46.665 31.1094C48.1259 26.6406 49.0712 25.0938 50.9618 24.2344C54.6571 22.4297 53.54 18.5625 48.8134 16.9297C47.954 16.5859 47.2665 15.7266 47.2665 14.9531C47.2665 13.8359 47.0087 13.75 46.0634 14.5234C45.3759 15.0391 44.3446 15.3828 43.7431 15.2969C43.1415 15.125 42.454 16.2422 42.0243 18.0469C41.165 22.1719 39.5321 23.0312 34.6337 22.2578C32.3134 21.9141 26.6415 21.5703 21.915 21.4844C12.7196 21.4844 11.9462 21.2266 10.3993 18.3047C9.11027 15.7266 9.1962 13.1484 10.915 8.76562C12.204 5.32812 12.204 4.98438 10.915 3.60938C9.53995 2.32031 9.45402 2.32031 9.45402 4.125Z" fill="white"/>
</svg>
